<?xml version="1.0" standalone="no"?>
<!DOCTYPE svg PUBLIC "-//W3C//DTD SVG 20010904//EN"
 "http://www.w3.org/TR/2001/REC-SVG-20010904/DTD/svg10.dtd">
<svg version="1.0" xmlns="http://www.w3.org/2000/svg"
 width="256.000000pt" height="256.000000pt" viewBox="0 0 256.000000 256.000000"
 preserveAspectRatio="xMidYMid meet">
<metadata>
Created by potrace 1.11, written by Peter Selinger 2001-2013
</metadata>
<g transform="translate(0.000000,256.000000) scale(0.100000,-0.100000)"
fill="#000000" stroke="none">
<path d="M1202 2548 c-47 -16 -119 -83 -141 -131 -22 -48 -22 -143 1 -197 32
-76 119 -135 205 -139 103 -5 187 43 231 132 57 114 7 262 -108 322 -39 20
-144 28 -188 13z"/>
<path d="M1058 1959 c-93 -10 -162 -61 -214 -159 -17 -32 -18 -67 -18 -476 -1
-477 -1 -479 53 -504 14 -7 46 -14 70 -16 24 -1 47 -6 51 -11 5 -4 11 -73 15
-153 3 -80 8 -165 10 -190 1 -25 6 -99 9 -165 4 -66 9 -142 12 -169 11 -101
41 -116 234 -116 195 0 227 17 235 123 4 51 13 193 20 332 12 221 19 327 24
345 0 3 18 4 39 3 48 -3 106 22 123 54 11 21 14 113 13 467 0 479 2 458 -57
538 -29 40 -98 85 -140 93 -48 9 -404 12 -479 4z"/>
</g>
</svg>
